# AST/ASF file generated using VICON BodyLanguage
# -----------------------------------------------
:version 1.10
:name VICON
:units
  mass 1.0
  length 0.45
  angle deg
:documentation
   .ast/.asf automatically generated from VICON data using
   VICON BodyBuilder and BodyLanguage model FoxedUp or BRILLIANT.MOD
:root
   order TX TY TZ RX RY RZ
   axis XYZ
   position 0 0 0  
   orientation 0 0 0 
:bonedata
  begin
     id 1 
     name lhipjoint
     direction 0.822369 -0.411937 0.392449 
     length 3.8167 
     axis 0 0 0  XYZ
  end
  begin
     id 2 
     name lfemur
     direction 0.34202 -0.939693 0  
     length 6.16791  
     axis 0 0 20  XYZ
    dof rx ry rz
    limits (-160.0 20.0)
           (-70.0 70.0)
           (-60.0 70.0)
  end
  begin
     id 3 
     name ltibia
     direction 0.34202 -0.939693 0   
     length 7.07101   
     axis 0 0 20   XYZ
    dof rx
    limits (-10.0 170.0)
  end
  begin
     id 4 
     name lfoot
     direction 0.028254 -0.0776273 0.996582   
     length 1.66799   
     axis -90 7.62852e-016 20   XYZ
    dof rx rz
    limits (-45.0 90.0)
           (-70.0 20.0)
  end
  begin
     id 5 
     name ltoes
     direction 1.53483e-011 -4.21688e-011 1   
     length 0.851674   
     axis -90 7.62852e-016 20   XYZ
    dof rx
    limits (-90.0 20.0)
  end
  begin
     id 6 
     name rhipjoint
     direction -0.822466 -0.411836 0.392353   
     length 3.81764  
     axis 0 0 0  XYZ 
  end
  begin
     id 7 
     name rfemur
     direction -0.34202 -0.939693 0   
     length 6.28636   
     axis 0 0 -20   XYZ
    dof rx ry rz
    limits (-160.0 20.0)
           (-70.0 70.0)
           (-70.0 60.0)
  end
  begin
     id 8 
     name rtibia
     direction -0.34202 -0.939693 0   
     length 6.85621   
     axis 0 0 -20   XYZ
    dof rx
    limits (-10.0 170.0)
 end
 begin
     id 9 
     name rfoot
     direction -0.0553036 -0.151945 0.98684   
     length 1.57293  
     axis -90 -7.62852e-016 -20   XYZ
    dof rx rz
    limits (-45.0 90.0)
           (-20.0 70.0)
  end
  begin
     id 10 
     name rtoes
     direction -1.53592e-011 -4.21964e-011 1   
     length 0.802812   
     axis -90 -7.62852e-016 -20   XYZ
    dof rx
    limits (-90.0 20.0)
  end
  begin
     id 11 
     name lowerback
     direction 0.00654913 0.996475 -0.0836396   
     length 1.97212   
     axis 0 0 0   XYZ
    dof rx ry rz
    limits (-20.0 45.0)
           (-30.0 30.0)
           (-30.0 30.0)
  end
  begin
     id 12 
     name upperback
     direction 0.0111875 0.994527 0.103877   
     length 1.89704   
     axis 0 0 0   XYZ
    dof rx ry rz
    limits (-20.0 45.0)
           (-30.0 30.0)
           (-30.0 30.0)
  end
  begin
     id 13 
     name thorax
     direction 0.00473652 0.989004 0.147814   
     length 1.94516   
     axis 0 0 0   XYZ
    dof rx ry rz
    limits (-20.0 45.0)
           (-30.0 30.0)
           (-30.0 30.0)
  end
  begin
     id 14 
     name lowerneck
     direction -0.00925808 0.999011 0.0434791   
     length 1.81771   
     axis 0 0 0   XYZ
    dof rx ry rz
    limits (-20.0 45.0)
           (-30.0 30.0)
           (-30.0 30.0)
  end
  begin
     id 15 
     name upperneck
     direction 0.00451595 0.964412 -0.264365   
     length 1.80434   
     axis 0 0 0   XYZ
    dof rx ry rz
    limits (-20.0 45.0)
           (-30.0 30.0)
           (-30.0 30.0)
  end
  begin
     id 16
     name head
     direction -0.00110849 0.995756 -0.0920241  
     length 1.84006  
     axis 0 0 0   XYZ
    dof rx ry rz
    limits (-20.0 45.0)
           (-30.0 30.0)
           (-30.0 30.0)
  end
  begin
     id 17 
     name lclavicle
     direction 0.921253 0.385213 0.0538957  
     length 3.67415  
     axis 0 0 0   XYZ
    dof ry rz
    limits (-20.0 10.0)
           (0.0 20.0)
  end
  begin
     id 18 
     name lhumerus
     direction 1 -4.48961e-011 6.73441e-028   
     length 4.32712   
     axis 180 -30 -90   XYZ
    dof rx ry rz
    limits (-60.0 90.0)
           (-90.0 90.0)
           (-90.0 90.0)
  end
  begin
     id 19
     name lradius
     direction 1 -4.48985e-011 -9.53507e-028   
     length 3.28587   
     axis 180 -30 -90   XYZ
    dof rx
    limits (-10.0 170.0)
  end
  begin
     id 20
     name lwrist
     direction 1 -4.48951e-011 -4.67472e-027   
     length 1.64293   
     axis 1.65735e-015 90 90   XYZ
    dof ry
    limits (-180.0 0.0)
 end
  begin
     id 21 
     name lhand
     direction 1 -4.48946e-011 -9.34945e-027   
     length 0.433158   
     axis 5.96574e-015 90 90   XYZ
    dof rx rz
    limits (-90.0 90.0)
           (-45.0 45.0)
  end
  begin
     id 22 
     name lfingers
     direction 1 -4.48882e-011 -1.86989e-026   
     length 0.349224   
     axis 1.19315e-014 90 90   XYZ
    dof rx
    limits (0.0 90.0)
  end
  begin
     id 23
     name lthumb
     direction 0.707107 -6.3493e-011 0.707107   
     length 0.501417   
     axis -90 45 2.85299e-015   XYZ
    dof rx rz
    limits (-45.0 45.0)
           (-45.0 45.0)
  end
  begin
     id 24 
     name rclavicle
     direction -0.884378 0.46502 -0.0403866   
     length 3.50218  
     axis 0 0 0   XYZ 
    dof ry rz
    limits (-10.0 20.0)
           (-20.0 0.0)
  end
  begin
     id 25 
     name rhumerus
     direction -1 -4.48964e-011 1.58188e-027  
     length 4.29104   
     axis 180 30 90   XYZ
    dof rx ry rz
    limits (-90.0 60.0)
           (-90.0 90.0)
           (-90.0 90.0)
  end
  begin
     id 26 
     name rradius
     direction -1 -4.48978e-011 -1.9722e-027   
     length 3.2272   
     axis 180 30 90   XYZ
    dof rx
    limits (-10.0 170.0)
  end
  begin
     id 27 
     name rwrist
     direction -1 -4.48969e-011 -4.67472e-027   
     length 1.6136   
     axis 1.65735e-015 -90 -90   XYZ
    dof ry
    limits (-180.0 0.0)
  end
  begin
     id 28
     name rhand
     direction -1 -4.48846e-011 -9.34945e-027   
     length 0.543623   
     axis 5.96574e-015 -90 -90   XYZ
    dof rx rz
    limits (-90.0 90.0)
           (-45.0 45.0)
  end
  begin
     id 29
     name rfingers
     direction -1 -4.49074e-011 -1.86989e-026   
     length 0.438283   
     axis 1.19315e-014 -90 -90   XYZ
    dof rx
    limits (0.0 90.0)
  end
  begin
     id 30
     name rthumb
     direction -0.707107 -6.34834e-011 0.707107   
     length 0.629289   
     axis -90 -45 -2.85299e-015   XYZ
    dof rx rz
    limits (-45.0 45.0)
           (-45.0 45.0)
  end
:hierarchy
  begin
    root lhipjoint rhipjoint lowerback
    lhipjoint lfemur
    lfemur ltibia
    ltibia lfoot
    lfoot ltoes
    rhipjoint rfemur
    rfemur rtibia
    rtibia rfoot
    rfoot rtoes
    lowerback upperback
    upperback thorax
    thorax lowerneck lclavicle rclavicle
    lowerneck upperneck
    upperneck head
    lclavicle lhumerus
    lhumerus lradius
    lradius lwrist
    lwrist lhand lthumb
    lhand lfingers
    rclavicle rhumerus
    rhumerus rradius
    rradius rwrist
    rwrist rhand rthumb
    rhand rfingers
  end

#!OML:ASF H:\GeneralSubjects\Female5\Project 1\Capture day 1\Session 1\Female5.ASF
:FULLY-SPECIFIED
:DEGREES
32
root -26.0961 15.9745 1.73768 -163.941 60.6891 -172.295
lowerback 7.89592 2.78616 3.86373
upperback -8.7646 4.69201 0.23534
thorax -13.7903 1.9687 -2.84051
lowerneck -16.4185 -4.81613 3.0143
upperneck 37.8592 -5.68285 -1.78801
head 16.0733 -1.43 -2.11763
rclavicle -4.96713e-014 -9.93923e-015
rhumerus -44.8094 13.5559 -81.1805
rradius 30.0803
rwrist -12.0554
rhand -21.9067 -19.1029
rfingers 7.12502
rthumb 4.49886 -49.0351
lclavicle -4.96713e-014 -9.93923e-015
lhumerus -49.818 9.77754 66.296
lradius 34.2546
lwrist -7.78437
lhand -18.7353 26.7414
lfingers 7.12502
lthumb 7.56064 56.5863
rfemur -3.328 3.37617 29.9018
rtibia 11.1089
rfoot -22.8195 -15.1142
rtoes -19.7677
lfemur -8.41695 -25.398 -24.9754
ltibia 14.1737
lfoot -21.4703 5.44372
ltoes -61.6788
33
root -26.0735 15.9579 1.70143 -164.2 61.558 -172.672
lowerback 8.0353 2.61524 3.18126
upperback -8.61901 4.36016 0.371119
thorax -13.7836 1.88317 -2.25297
lowerneck -16.3647 -5.39383 2.7374
upperneck 37.8555 -6.48254 -1.87478
head 16.0345 -1.83481 -2.2498
rclavicle -1.00681e-013 -3.90612e-014
rhumerus -44.6237 14.292 -81.2173
rradius 30.2588
rwrist -11.9546
rhand -21.8716 -18.9818
rfingers 7.12502
rthumb 4.53276 -48.9133
lclavicle -1.00681e-013 -3.90612e-014
lhumerus -49.9977 10.5327 66.0699
lradius 34.0127
lwrist -8.12187
lhand -21.5811 29.9319
lfingers 7.12502
lthumb 4.81327 59.8573
rfemur -5.44819 1.15717 29.0639
rtibia 14.919
rfoot -21.4184 -13.4808
rtoes -22.8692
lfemur -7.91782 -24.9898 -25.6036
ltibia 14.1
lfoot -22.0802 4.97007
ltoes -60.7637
34
root -26.0507 15.9443 1.66675 -164.087 62.4633 -172.639
lowerback 8.26965 2.51121 2.85216
upperback -8.51355 4.16958 0.437837
thorax -13.8426 1.82252 -1.9701
lowerneck -16.3399 -5.76554 2.36012
upperneck 37.8028 -7.07261 -1.58996
head 16.0181 -2.11144 -2.16789
rclavicle -3.04591e-014 -9.44227e-016
rhumerus -44.6444 14.7727 -81.2919
rradius 30.4216
rwrist -11.8087
rhand -22.1627 -18.8928
rfingers 7.12502
rthumb 4.25161 -48.8301
lclavicle -3.04591e-014 -9.44227e-016
lhumerus -49.9668 10.9297 65.9827
lradius 33.7325
lwrist -8.23215
lhand -21.3608 29.558
lfingers 7.12502
lthumb 5.02596 59.4784
rfemur -7.84096 -0.614708 28.5643
rtibia 19.1428
rfoot -19.7676 -12.2291
rtoes -25.1954
lfemur -7.46044 -24.7291 -25.9949
ltibia 14.112
lfoot -22.9486 4.57622
ltoes -59.8225
35
root -26.0227 15.933 1.63536 -164.042 63.3971 -172.676
lowerback 8.55261 2.44788 2.35981
upperback -8.43317 4.0146 0.517726
thorax -13.9701 1.79473 -1.59142
lowerneck -16.1505 -6.15596 1.95689
upperneck 37.664 -7.71426 -1.18641
head 15.9324 -2.39947 -2.03095
rclavicle 1.08971e-013 3.85145e-014
rhumerus -44.6855 15.2116 -81.3645
rradius 30.4891
rwrist -11.4443
rhand -22.878 -18.9113
rfingers 7.12502
rthumb 3.56092 -48.8613
lclavicle 1.08971e-013 3.85145e-014
lhumerus -49.922 11.0624 66.015
lradius 33.5002
lwrist -8.30503
lhand -21.4912 30.7977
lfingers 7.12502
lthumb 4.90004 60.721
rfemur -10.4732 -2.10315 28.1427
rtibia 23.7046
rfoot -17.931 -11.4009
rtoes -26.5491
lfemur -7.04992 -24.5433 -26.3538
ltibia 14.0597
lfoot -23.8 4.22801
ltoes -58.7587
36
root -25.9912 15.9238 1.60342 -164.093 64.3917 -172.851
lowerback 8.79164 2.37257 1.91753
upperback -8.32887 3.83223 0.505396
thorax -14.0296 1.74427 -1.33111
lowerneck -16.1046 -6.43078 1.88605
upperneck 37.508 -8.21004 -1.03673
head 15.8451 -2.62038 -2.03973
rclavicle -2.03133e-015 2.21148e-015
rhumerus -44.6124 15.1818 -81.2213
rradius 30.6928
rwrist -11.3831
rhand -23.0222 -18.5777
rfingers 7.12502
rthumb 3.42164 -48.53
lclavicle -2.03133e-015 2.21148e-015
lhumerus -49.8338 11.1856 65.9469
lradius 33.3993
lwrist -8.45723
lhand -20.2957 32.3021
lfingers 7.12502
lthumb 6.05435 62.1956
rfemur -13.2513 -3.18073 27.766
rtibia 28.253
rfoot -16.2666 -11.0313
rtoes -26.2375
lfemur -6.66672 -24.2239 -26.7377
ltibia 13.8328
lfoot -24.4987 3.73996
ltoes -57.7157
37
root -25.9613 15.9163 1.57166 -164.122 65.4546 -173.078
lowerback 8.98573 2.29939 1.51182
upperback -8.20769 3.64916 0.45277
thorax -14.0333 1.6883 -1.13086
lowerneck -16.0884 -6.53216 1.96951
upperneck 37.2232 -8.51306 -0.85164
head 15.7007 -2.74356 -2.02438
rclavicle 3.52734e-014 1.95306e-014
rhumerus -44.2345 14.7271 -80.5871
rradius 31.0651
rwrist -12.7734
rhand -21.0747 -18.8627
rfingers 7.12502
rthumb 5.30225 -48.7764
lclavicle 3.52734e-014 1.95306e-014
lhumerus -49.6247 11.6616 65.7275
lradius 33.295
lwrist -8.90474
lhand -19.6142 32.8416
lfingers 7.12502
lthumb 6.71231 62.7152
rfemur -16.1609 -4.09059 27.4915
rtibia 32.569
rfoot -14.5956 -11.4881
rtoes -28.6362
lfemur -6.3142 -23.9232 -27.1231
ltibia 13.3747
lfoot -25.1196 3.40992
ltoes -56.7024
